
<svg id="Layer_1" data-name="Layer 1" xmlns="http://www.w3.org/2000/svg" viewBox="0 0 512 512">
    <defs>
        <style>.cls-1{fill:green}
        </style>
    </defs>
    <title>icon-healing</title>
    <path class="cls-1" d="M256,0C114.61,0,0,114.62,0,256S114.61,512,256,512,512,397.38,512,256,397.38,0,256,0ZM358.4,275.2a19.2,19.2,0,0,1-19.2,19.2H294.4v44.8a19.2,19.2,0,0,1-19.2,19.2H236.8a19.2,19.2,0,0,1-19.2-19.2V294.4H172.8a19.2,19.2,0,0,1-19.2-19.2V236.8a19.2,19.2,0,0,1,19.2-19.2h44.8V172.8a19.2,19.2,0,0,1,19.2-19.2h38.4a19.2,19.2,0,0,1,19.2,19.2v44.8h44.8a19.2,19.2,0,0,1,19.2,19.2Z"/>
</svg>